<?xml version="1.0" encoding="utf-8"?>
<!-- Generator: Adobe Illustrator 26.0.1, SVG Export Plug-In . SVG Version: 6.00 Build 0)  -->
<svg version="1.1" xmlns="http://www.w3.org/2000/svg" xmlns:xlink="http://www.w3.org/1999/xlink" x="0px" y="0px"
	 viewBox="0 0 841.89 595.28" style="enable-background:new 0 0 841.89 595.28;" xml:space="preserve">
<style type="text/css">
	.st0{fill:#FFFFFF;stroke:#72102A;stroke-width:14.1732;stroke-miterlimit:10;}
	.st1{fill:none;}
	.st2{fill:#C27D55;}
	.st3{fill:#AD6744;}
	.st4{fill:#D49D7B;}
	.st5{fill:#49001A;}
	.st6{fill:#72102A;}
	.st7{display:none;}
</style>
<g id="headshape">
</g>
<g id="hair">
</g>
<g id="fringe">
	<circle class="st0" cx="420.95" cy="297.64" r="250"/>
	<g>
		<path class="st1" d="M365.4,197.59c-4.83,5.1-6.59,15.01-4.25,40.33c-0.16-2.36-0.33-4.78-0.54-7.26
			C359.39,215.82,360.36,203.73,365.4,197.59z"/>
		<path class="st2" d="M421.57,369.9c-9.48-8.41-21.79-15.52-43.59-17.16c-0.46,35.33-8.4,67.33-0.8,88.87
			c5.69,16.13,30.41,30.05,44.75,36.95c15.63-0.68,31.64-8.21,40.14-15.97c-13.71-18.95-21.2-35.71-27.44-50.32
			C426.9,394.15,423.12,377.51,421.57,369.9z"/>
		<path class="st3" d="M371.86,296.82c1.89,9.76,3.05,18.68,3.55,21.44c2.11,11.68,2.72,23.25,2.57,34.48
			c21.8,1.64,34.11,8.76,43.59,17.16c-0.38-1.88-0.64-3.24-0.77-3.89c-3.23-15.68-1.43-32.94,5.15-47.57
			c0.34-0.75,0.96-1.47,0.96-1.47c0.11,0.01,0.2,0.01,0.3,0.02c-15.24-1.83-36.54-8.41-49.98-16.01
			C375.15,299.8,373.38,298.41,371.86,296.82z"/>
		<path class="st4" d="M366.55,196.51c-0.4,0.34-0.79,0.7-1.15,1.09c-5.04,6.13-6.01,18.23-4.78,33.07c0.2,2.48,0.38,4.9,0.54,7.26
			c0.13,1.42,0.27,2.87,0.43,4.38l0,0c0.8,7.84,3.96,28.62,7.53,42.22c1.05,3.99,1.96,8.21,2.75,12.29c1.52,1.6,3.29,2.99,5.38,4.17
			c13.44,7.6,34.74,14.18,49.98,16.01c6.8,0.42,9.33,0.96,12.52-0.36c3.96-1.63,6.88-4.61,11.49-9.53c2.97-3.16,4.98-7.66,8.84-13.2
			c6.19-8.88,9.03-19.68,9.72-23.19c1.09-5.54,0.77-4.63,2.11-13.62c1.59-12.12,1.64-12.92,2.12-19.65
			c0.41-5.74,0.66-12.16-0.01-15.62c-0.7-3.59-1.27-5.48-1.73-6.41c-1.23-2.44-0.89-4.7-0.98-7.76c-0.23-8.13,0.92-14.07-0.15-17.79
			c-0.15-0.52-0.45-1.07-0.83-1.61C438.17,166.64,378.21,187.74,366.55,196.51z"/>
		<path class="st5" d="M507.89,446.64c-7.47-15.31-14.47-24.42-5.88-68.91c4.61-23.87-20.98-82.51-21.37-101.95
			c-0.03-1.39-0.16-8.79-0.8-18.79c-0.3-4.77-0.75-10.21-1.46-16.78c-2.25-20.87-3.38-20.83-2.71-30.68
			c0.32-4.76,0.61-11.4,0.81-16.26v0c-1.91-1.89-3.97-3.55-6.16-5.02c0.39,0.55,0.68,1.09,0.83,1.61c1.07,3.71-0.08,9.66,0.15,17.79
			c0.09,3.06-0.25,5.33,0.98,7.76c0.47,0.92,1.03,2.82,1.73,6.41c0.67,3.46,0.42,9.88,0.01,15.62c-0.48,6.73-0.54,7.53-2.12,19.65
			c-1.34,9-1.02,8.09-2.11,13.62c-0.69,3.5-3.53,14.3-9.72,23.19c-3.86,5.54-5.87,10.04-8.84,13.2c-4.62,4.92-7.54,7.89-11.49,9.53
			c-3.19,1.32-5.72,0.78-12.52,0.36c-0.1-0.01-0.2-0.01-0.3-0.02c0,0-0.62,0.71-0.96,1.47c-6.59,14.63-8.38,31.89-5.15,47.57
			c0.14,0.66,0.39,2.01,0.77,3.89c1.55,7.61,5.33,24.25,13.06,42.37c6.24,14.61,13.73,31.38,27.44,50.32
			c0.46,0.64,0.91,1.27,1.39,1.92c15.07,20.36,44.79,24.96,67.53,19.9c6.35-1.41,11.72-4.31,11.72-4.31
			C525.83,468.95,514.27,459.73,507.89,446.64z"/>
		<path class="st6" d="M377.18,441.61c-7.6-21.54,0.34-53.55,0.8-88.87c0.15-11.24-0.46-22.8-2.57-34.48
			c-0.5-2.76-1.66-11.68-3.55-21.44c-0.79-4.08-1.7-8.3-2.75-12.29c-3.57-13.6-6.74-34.38-7.53-42.22l0,0
			c-0.16-1.51-0.3-2.96-0.43-4.38c-2.34-25.32-0.59-35.23,4.25-40.33c0.37-0.39,0.75-0.75,1.15-1.09
			c11.66-8.77,71.62-29.86,103.76-8.25c2.19,1.47,4.25,3.14,6.16,5.02v0c3.08-31.65-19.71-92.64-81.21-89.47
			c-34.69,1.79-65.83,23.04-79.59,48.84c-13.95,26.16-12.33,37.69-14.77,60.9c-2.74,26.02-0.18,89.11-1.51,113.66
			c-1.41,25.93,4.54,48.31,2.71,75.97c-3.92,59.45,25.32,70.76,32.56,74.16c23.15,10.9,76.88,22.61,97.68,5.88
			c0,0-4.26-1.68-10.42-4.65C407.59,471.66,382.87,457.74,377.18,441.61z"/>
	</g>
</g>
<g id="baggrund" class="st7">
</g>
</svg>
